<svg xmlns="http://www.w3.org/2000/svg" viewBox="0 0 1566 228" width="1566" height="228" role="img" aria-label="Mango Catalyst">
  <!-- Wordmark: Inter semibold, outlined. Spark: the amber period, igniting. -->
  <g transform="translate(12 168) scale(0.09766 -0.09766)" fill="#F2F5FA">
    <path d="M138 0L138 1118L382 1118L392 849L373 849Q397 949 447.5 1012Q498 1075 565.5 1105.5Q633 1136 707 1136Q828 1136 902.5 1060Q977 984 1008 836L977 836Q1000 936 1055.5 1002.5Q1111 1069 1187.5 1102.5Q1264 1136 1351 1136Q1452 1136 1532 1092Q1612 1048 1659 963.5Q1706 879 1706 754L1706 0L1446 0L1446 714Q1446 818 1389 866Q1332 914 1252 914Q1190 914 1144 887Q1098 860 1073.5 812.5Q1049 765 1049 702L1049 0L795 0L795 726Q795 811 742 862.5Q689 914 606 914Q549 914 501.5 888Q454 862 426 811Q398 760 398 685L398 0Z M2252.71 -23Q2146.71 -23 2061.71 15.5Q1976.71 54 1927.71 129Q1878.71 204 1878.71 314Q1878.71 409 1914.21 471Q1949.71 533 2010.21 570Q2070.71 607 2146.71 626Q2222.71 645 2304.71 653Q2401.71 664 2462.71 672Q2523.71 680 2552.21 698Q2580.71 716 2580.71 754L2580.71 759Q2580.71 814 2558.71 852.5Q2536.71 891 2493.21 911.5Q2449.71 932 2385.71 932Q2320.71 932 2273.21 912Q2225.71 892 2195.71 860Q2165.71 828 2151.71 791L1910.71 840Q1943.71 939 2012.71 1003.5Q2081.71 1068 2177.21 1100Q2272.71 1132 2384.71 1132Q2463.71 1132 2544.21 1113.5Q2624.71 1095 2691.71 1051Q2758.71 1007 2799.71 933Q2840.71 859 2840.71 747L2840.71 0L2591.71 0L2591.71 154L2581.71 154Q2556.71 107 2513.21 66.5Q2469.71 26 2405.21 1.5Q2340.71 -23 2252.71 -23ZM2319.71 170Q2400.71 170 2459.21 202Q2517.71 234 2550.21 286.5Q2582.71 339 2582.71 401L2582.71 533Q2569.71 523 2539.21 514Q2508.71 505 2471.21 498Q2433.71 491 2397.21 486Q2360.71 481 2335.71 478Q2277.71 470 2230.71 452Q2183.71 434 2157.21 401.5Q2130.71 369 2130.71 317Q2130.71 269 2155.21 236.5Q2179.71 204 2222.21 187Q2264.71 170 2319.71 170Z M3335.67 655L3335.67 0L3075.67 0L3075.67 1118L3321.67 1118L3325.67 842L3304.67 842Q3351.67 987 3442.67 1059.5Q3533.67 1132 3670.67 1132Q3785.67 1132 3871.67 1083Q3957.67 1034 4005.17 940Q4052.67 846 4052.67 711L4052.67 0L3792.67 0L3792.67 671Q3792.67 783 3734.67 847Q3676.67 911 3574.67 911Q3505.67 911 3451.67 881Q3397.67 851 3366.67 793.5Q3335.67 736 3335.67 655Z M4769.91 -442Q4635.91 -442 4536.41 -408Q4436.91 -374 4373.41 -315.5Q4309.91 -257 4281.91 -183L4501.91 -104Q4519.91 -135 4551.41 -168Q4582.91 -201 4635.41 -222.5Q4687.91 -244 4768.91 -244Q4889.91 -244 4962.91 -187.5Q5035.91 -131 5035.91 -11L5035.91 200L5013.91 200Q4994.91 160 4957.91 117.5Q4920.91 75 4858.41 46Q4795.91 17 4698.91 17Q4570.91 17 4466.41 77.5Q4361.91 138 4300.41 259Q4238.91 380 4238.91 562Q4238.91 746 4300.91 873Q4362.91 1000 4467.41 1066Q4571.91 1132 4700.91 1132Q4799.91 1132 4863.91 1099Q4927.91 1066 4965.91 1019.5Q5003.91 973 5023.91 933L5037.91 933L5037.91 1118L5292.91 1118L5292.91 -3Q5292.91 -152 5224.91 -249.5Q5156.91 -347 5038.91 -394.5Q4920.91 -442 4769.91 -442ZM4771.91 222Q4856.91 222 4915.91 262.5Q4974.91 303 5005.91 380Q5036.91 457 5036.91 564Q5036.91 670 5006.41 749.5Q4975.91 829 4916.91 873.5Q4857.91 918 4771.91 918Q4683.91 918 4624.41 871.5Q4564.91 825 4534.91 745.5Q4504.91 666 4504.91 564Q4504.91 461 4535.41 384Q4565.91 307 4625.41 264.5Q4684.91 222 4771.91 222Z M6013.15 -23Q5850.15 -23 5730.15 49.5Q5610.15 122 5544.65 251.5Q5479.15 381 5479.15 553Q5479.15 727 5544.65 857.5Q5610.15 988 5730.15 1060Q5850.15 1132 6013.15 1132Q6177.15 1132 6297.15 1060Q6417.15 988 6482.65 857.5Q6548.15 727 6548.15 553Q6548.15 381 6482.65 251.5Q6417.15 122 6297.15 49.5Q6177.15 -23 6013.15 -23ZM6013.15 188Q6104.15 188 6164.65 237Q6225.15 286 6254.65 369Q6284.15 452 6284.15 554Q6284.15 657 6254.65 740Q6225.15 823 6164.65 872Q6104.15 921 6013.15 921Q5922.15 921 5862.65 872Q5803.15 823 5773.65 740.5Q5744.15 658 5744.15 554Q5744.15 452 5773.65 369Q5803.15 286 5862.65 237Q5922.15 188 6013.15 188Z M7693.47 -23Q7530.47 -23 7410.47 49.5Q7290.47 122 7224.97 251.5Q7159.47 381 7159.47 553Q7159.47 727 7224.97 857.5Q7290.47 988 7410.47 1060Q7530.47 1132 7693.47 1132Q7786.47 1132 7866.47 1108Q7946.47 1084 8009.47 1038.5Q8072.47 993 8114.97 928Q8157.47 863 8175.47 781L7932.47 730Q7921.47 773 7900.97 808.5Q7880.47 844 7850.47 869Q7820.47 894 7781.47 907.5Q7742.47 921 7695.47 921Q7604.47 921 7544.47 872.5Q7484.47 824 7454.47 741.5Q7424.47 659 7424.47 554Q7424.47 451 7454.47 368Q7484.47 285 7544.47 236.5Q7604.47 188 7695.47 188Q7743.47 188 7782.97 202Q7822.47 216 7852.97 242Q7883.47 268 7904.47 305Q7925.47 342 7935.47 387L8178.47 336Q8160.47 252 8117.97 186Q8075.47 120 8011.97 73.5Q7948.47 27 7867.97 2Q7787.47 -23 7693.47 -23Z M8692.91 -23Q8586.91 -23 8501.91 15.5Q8416.91 54 8367.91 129Q8318.91 204 8318.91 314Q8318.91 409 8354.41 471Q8389.91 533 8450.41 570Q8510.91 607 8586.91 626Q8662.91 645 8744.91 653Q8841.91 664 8902.91 672Q8963.91 680 8992.41 698Q9020.91 716 9020.91 754L9020.91 759Q9020.91 814 8998.91 852.5Q8976.91 891 8933.41 911.5Q8889.91 932 8825.91 932Q8760.91 932 8713.41 912Q8665.91 892 8635.91 860Q8605.91 828 8591.91 791L8350.91 840Q8383.91 939 8452.91 1003.5Q8521.91 1068 8617.41 1100Q8712.91 1132 8824.91 1132Q8903.91 1132 8984.41 1113.5Q9064.91 1095 9131.91 1051Q9198.91 1007 9239.91 933Q9280.91 859 9280.91 747L9280.91 0L9031.91 0L9031.91 154L9021.91 154Q8996.91 107 8953.41 66.5Q8909.91 26 8845.41 1.5Q8780.91 -23 8692.91 -23ZM8759.91 170Q8840.91 170 8899.41 202Q8957.91 234 8990.41 286.5Q9022.91 339 9022.91 401L9022.91 533Q9009.91 523 8979.41 514Q8948.91 505 8911.41 498Q8873.91 491 8837.41 486Q8800.91 481 8775.91 478Q8717.91 470 8670.91 452Q8623.91 434 8597.41 401.5Q8570.91 369 8570.91 317Q8570.91 269 8595.41 236.5Q8619.91 204 8662.41 187Q8704.91 170 8759.91 170Z M10032.86 1118L10032.86 914L9397.86 914L9397.86 1118ZM9556.86 1384L9816.86 1384L9816.86 315Q9816.86 254 9842.86 225.5Q9868.86 197 9927.86 197Q9945.86 197 9975.36 201.5Q10004.86 206 10022.86 210L10063.86 9Q10020.86 -4 9975.86 -9.5Q9930.86 -15 9889.86 -15Q9728.86 -15 9642.86 65Q9556.86 145 9556.86 293Z M10520.18 -23Q10414.18 -23 10329.18 15.5Q10244.18 54 10195.18 129Q10146.18 204 10146.18 314Q10146.18 409 10181.68 471Q10217.18 533 10277.68 570Q10338.18 607 10414.18 626Q10490.18 645 10572.18 653Q10669.18 664 10730.18 672Q10791.18 680 10819.68 698Q10848.18 716 10848.18 754L10848.18 759Q10848.18 814 10826.18 852.5Q10804.18 891 10760.68 911.5Q10717.18 932 10653.18 932Q10588.18 932 10540.68 912Q10493.18 892 10463.18 860Q10433.18 828 10419.18 791L10178.18 840Q10211.18 939 10280.18 1003.5Q10349.18 1068 10444.68 1100Q10540.18 1132 10652.18 1132Q10731.18 1132 10811.68 1113.5Q10892.18 1095 10959.18 1051Q11026.18 1007 11067.18 933Q11108.18 859 11108.18 747L11108.18 0L10859.18 0L10859.18 154L10849.18 154Q10824.18 107 10780.68 66.5Q10737.18 26 10672.68 1.5Q10608.18 -23 10520.18 -23ZM10587.18 170Q10668.18 170 10726.68 202Q10785.18 234 10817.68 286.5Q10850.18 339 10850.18 401L10850.18 533Q10837.18 523 10806.68 514Q10776.18 505 10738.68 498Q10701.18 491 10664.68 486Q10628.18 481 10603.18 478Q10545.18 470 10498.18 452Q10451.18 434 10424.68 401.5Q10398.18 369 10398.18 317Q10398.18 269 10422.68 236.5Q10447.18 204 10489.68 187Q10532.18 170 10587.18 170Z M11603.14 1490L11603.14 0L11343.14 0L11343.14 1490Z M11843.97 -399L11904.97 -196L11935.97 -204Q11994.97 -219 12040.97 -212.5Q12086.97 -206 12117.97 -172.5Q12148.97 -139 12161.97 -75L12177.97 -4L11755.97 1118L12033.97 1118L12237.97 510Q12273.97 402 12296.97 295Q12319.97 188 12347.97 76L12279.97 76Q12306.97 188 12333.97 295.5Q12360.97 403 12396.97 510L12607.97 1118L12882.97 1118L12402.97 -144Q12368.97 -233 12317.97 -296.5Q12266.97 -360 12192.97 -393Q12118.97 -426 12017.97 -426Q11962.97 -426 11916.47 -418Q11869.97 -410 11843.97 -399Z M13442.37 -23Q13313.37 -23 13214.37 14Q13115.37 51 13051.87 122Q12988.37 193 12969.37 294L13212.37 340Q13235.37 257 13293.87 216.5Q13352.37 176 13447.37 176Q13543.37 176 13599.87 214.5Q13656.37 253 13656.37 310Q13656.37 358 13619.37 389.5Q13582.37 421 13505.37 438L13314.37 479Q13156.37 513 13078.37 591Q13000.37 669 13000.37 792Q13000.37 896 13057.37 972Q13114.37 1048 13215.87 1090Q13317.37 1132 13451.37 1132Q13578.37 1132 13669.87 1096Q13761.37 1060 13817.87 995.5Q13874.37 931 13896.37 844L13664.37 798Q13645.37 857 13595.37 897.5Q13545.37 938 13454.37 938Q13371.37 938 13315.87 901.5Q13260.37 865 13260.37 808Q13260.37 759 13297.37 727Q13334.37 695 13419.37 677L13609.37 637Q13768.37 603 13845.37 528Q13922.37 453 13922.37 335Q13922.37 229 13861.37 148.5Q13800.37 68 13691.87 22.5Q13583.37 -23 13442.37 -23Z M14620.68 1118L14620.68 914L13985.68 914L13985.68 1118ZM14144.68 1384L14404.68 1384L14404.68 315Q14404.68 254 14430.68 225.5Q14456.68 197 14515.68 197Q14533.68 197 14563.18 201.5Q14592.68 206 14610.68 210L14651.68 9Q14608.68 -4 14563.68 -9.5Q14518.68 -15 14477.68 -15Q14316.68 -15 14230.68 65Q14144.68 145 14144.68 293Z"/>
  </g>
  <g fill="none"><circle cx="1498.47" cy="148" r="20" fill="#F6A328"/><path d="M1526.32 128.5L1547.62 113.59M1509.28 114.71L1514.85 97.59" stroke="#F6A328" stroke-width="11" stroke-linecap="round"/></g>
</svg>
